<svg xmlns="http://www.w3.org/2000/svg" style="display: none;">
  <symbol id="icon-search" x="0" y="0" width="18" height="18" viewBox="-0.8 -0.8 18 18">
      <path d="M16.47 14.93l-3.42-3.42a7.7 7.7 0 10-1.54 1.54l3.42 3.42c.2.2.42.33.77.33.6 0 1.1-.5 1.1-1.1 0-.24-.06-.5-.33-.77zM1.4 6.9a5.5 5.5 0 1111 0 5.5 5.5 0 01-11 0z"/>
  </symbol>
  <symbol id="icon-cart" x="0" y="0" width="21" height="18" viewBox="264.2 370.96 20.29 18.85">
    <path d="M283.75 378.19h-3.15l-3.4-6.81a.75.75 0 10-1.35.67l3.07 6.14h-9.14l3.08-6.14a.75.75 0 00-1.34-.67l-3.41 6.81h-3.15a.75.75 0 000 1.5h.15l.86 3a.74.74 0 00-.32.59c0 .4.31.7.7.74l1.66 5.79h12.7l1.65-5.8c.39-.02.7-.34.7-.73a.74.74 0 00-.32-.6l.86-3h.15a.75.75 0 100-1.49zm-4.18 10.12h-10.43l-1.23-4.28h12.88l-1.22 4.28zm1.65-5.78h-13.74l-.8-2.84h15.35l-.8 2.84z"/>
  </symbol>
  <symbol id="icon-interior" width="40" height="62" viewBox="-259.4 -19.68 40.22 62.41">
    <path d="M-244.23 18.28c-.28.97-.24 2.2.03 3.64.5 2.64 1.69 6.04 2.36 9.67h5.06c.7-3.64 1.95-7.05 2.47-9.68.29-1.45.33-2.66.04-3.62-.27-.9-.89-1.62-2.02-2.3h-6c-1.07.68-1.67 1.39-1.94 2.3zM-232.4 38.28h-13.8c-1.29 0-2.3.97-2.3 2.23v2.23H-230.1V40.5c0-1.26-1-2.23-2.3-2.23zM-225.26-17.45H-237a2.25 2.25 0 00-2.3-2.23c-1.29 0-2.3.99-2.3 2.23h-11.74l-6.07 25.52c.79-.46 1.58-1 2.63-1 1.36 0 2.24.83 2.92 1.38.68.56 1.16.85 1.45.85.3 0 .77-.28 1.45-.83.68-.55 1.56-1.36 2.92-1.36 1.34 0 2.23.8 2.91 1.35.69.55 1.17.84 1.46.84.14 0 .33-.07.58-.21.24-.14.53-.35.87-.63.5-.4 1.14-.96 1.99-1.22.28-.08.59-.13.93-.13 1.34 0 2.24.8 2.92 1.35.68.55 1.16.84 1.45.84.29 0 .76-.3 1.44-.85.69-.55 1.57-1.36 2.93-1.36 1.35 0 2.24.81 2.92 1.37.34.27.63.49.87.63s.43.21.57.21c.3 0 .77-.3 1.45-.85.68-.56 1.56-1.39 2.93-1.39 1.04 0 1.83.54 2.63 1l-6.08-25.5zM-235.88 33.82h-6.87a1.1 1.1 0 00-1.15 1.11c0 .64.5 1.12 1.15 1.12h6.9a1.1 1.1 0 001.15-1.11c0-.64-.49-1.12-1.15-1.12h-.03zM-239.3 9.34c-.14 0-.33.07-.57.2-.16.1-.37.27-.57.42v3.73h2.3V9.96c-.51-.38-.91-.62-1.16-.62z"/>
  </symbol>
  <symbol id="icon-toys" width="60" height="59.62" viewBox="226 226.19 60 59.62">
    <path d="M226 269.87l27.44 15.93v-23.34L226 246.52v23.35zm51.35-31.24v2.45c0 1.82-3.46 3.29-7.73 3.29-4.27 0-7.73-1.47-7.73-3.29v-4.06h.02c.26 1.72 3.6 3.07 7.7 3.07 4.28 0 7.73-1.47 7.73-3.28 0-1.82-3.45-3.29-7.72-3.29-.34 0-.68.01-1 .03l-4.98-2.89v3.09c0 1.82-3.46 3.29-7.72 3.29-2.69 0-5.05-.58-6.44-1.47-.2-.2-.44-.4-.73-.58a1.8 1.8 0 01-.56-1.24v-2.99l-4.81 2.8c-.35-.02-.7-.04-1.06-.04-4.26 0-7.72 1.47-7.72 3.3 0 1.8 3.46 3.28 7.72 3.28 4.1 0 7.45-1.36 7.71-3.08h.02v4.06c0 1.82-3.45 3.3-7.73 3.3-4.26 0-7.72-1.48-7.72-3.3v-2.42l-5.95 3.45 27.53 15.99 27.35-15.88-6.18-3.6zm-13.65 10.16c0 1.82-3.46 3.29-7.72 3.29-4.27 0-7.73-1.47-7.73-3.29v-4.06h.02c.26 1.72 3.6 3.08 7.7 3.08s7.45-1.36 7.71-3.08h.02v4.06zm-5.14 13.88v23.14L286 269.87v-23.14l-27.44 15.94zm-2.64-29.9c4.27 0 7.72-1.48 7.72-3.3 0-1.8-3.45-3.28-7.72-3.28s-7.73 1.47-7.73 3.29c0 1.81 3.46 3.28 7.73 3.28"/>
  </symbol>
  <symbol id="icon-instagram" width="22" height="21" viewBox="53.12 53.19 21.77 21.33">
    <path d="M74.88 65.34c-.01-2.4-.34-4.8-.3-7.14-.02-.79-.09-1.53-.15-2.28-.1-.3-.12-.7-.16-1.06-.26-.17-.22-.64-.45-.83-.42-.24-1.2-.12-1.75-.22-.65-.03-1.25-.12-1.9-.16-1.93-.1-3.97-.07-6-.07-2 0-3.94-.15-5.69-.38h-2.2c-.1 0-.1.1-.22.07-.6.04-1.08.2-1.6.3a2.8 2.8 0 01-.68.31c-.14.2-.52.15-.61.38-.19.21.19.45 0 .6v.92c.17.13.03.58.08.83v.99c-.02 1.28.13 2.4.07 3.72.47 2.76.38 6.54.08 9.41.15.58.36 1.1.45 1.75.26.48.34 1.13.69 1.52.5.2 1.23.18 1.9.23.38.1.66.3 1.13.3 2.85-.21 5.5-.16 8.43-.23 2.7.24 5.8.19 8.28-.23.19-.13.12-.53.22-.76-.05-.38.21-.45.23-.76.13-2.4.16-4.79.15-7.21zM61.9 59.1c.76-.15 1.48-.34 2.43-.3.7.07 1.29.28 1.9.45.11.19-.25.55.15.69v.07c.06.02.15 0 .15.08.44.03.8.17 1.06.38.45.05.54.47 1.14.3-.1.21-.08.52-.07.83.32 1.19.47 2.81.3 4.25-.17.17-.22.45-.3.69-.32.32-.49.78-.84 1.06-.1.24-.25.4-.45.53-.12.22-.21.46-.46.53-.3.17-.58.01-.84-.07-.44.16-.9.3-1.21.6-.82-.1-1.65-.17-2.43-.3a1.94 1.94 0 00-.84-.3 2 2 0 00-.83-.46c-.1-.13-.34-.12-.46-.23-.2-.03-.23-.23-.45-.23-.12-.41-.45-.62-.53-1.06-.23-.33-.31-.8-.46-1.22-.04-1.43.1-2.69.38-3.8.35-.58.78-1.08 1.14-1.66.25.02.36-.1.38-.3.3.05.43-.08.68-.08.26 0 .27-.3.46-.45zm-1.67-2.73c-.12-.27-.07-.7-.08-1.06 0-.29.28-.28.3-.54 0-.07-.09-.05-.14-.07.12-.15.7-.1.83 0 .13.54-.35.45-.53.68.01.17.32.03.46.08.02.85-.06 1.5 0 2.2h-.46c0 .23.23.23.46.23-.06.28.09.36.07.6-.23.16-.72.05-1.06.08-.1-.6.23-1.38.15-2.2zm-.68-1.6c.08 0 .13.02.15.08.18.25 0 .68-.08.91-.17-.18-.02-.68-.07-.99zm.15 1.83c-.13-.07-.17-.24-.15-.46.13.07.16.24.15.46zm0 1.36c-.06.14-.08-.04-.08-.15.06-.14.08.05.08.15zm-.15.23c.17-.02.08.22.22.23 0 .2-.28.18-.38.07.04-.1.12-.19.16-.3zm-2.36-1.22c0-.1.02-.2-.07-.22-.08-.74.13-1.42 0-1.98.25-.15.77-.04 1.14-.07v1.14c-.1.06-.2.1-.38.07-.06.28.32.13.38.3 0 .86-.06 1.78.15 2.44-.57-.06-.9.1-1.44.07.1-.61-.02-1.43.53-1.6-.02-.13-.26-.04-.3-.15zm-.53 0c-.2.03-.22-.53-.08-.6.33 0 .25.5.08.6zm-.15 1c.08-.32.03-.31.07-.69.23.01.26.77-.07.68zm.23-2.06c-.27.06-.28-.26-.16-.38.27-.05.28.27.16.38zm0-1.14c.03.16-.06.2-.08.3-.17.03-.08-.21-.23-.22.03-.1.2-.06.3-.08zm-.23 3.73c.15-.04.1.34-.08.22a.36.36 0 00.08-.22zm-.68-3.73c.02.26-.44.32-.38 0h.38zm-1 .08c-.03.22-.32.18-.37.38-.22-.17.08-.47.38-.38zm-.45.76c.23-.2.45-.41.69-.6-.02-.13.07-.14.07-.24h.23c.1.38-.26.3-.3.53.02.13-.08.14-.08.23.02.34.12.59.08.99-.27 0-.28.28-.61.23.02-.43-.13-.68-.08-1.14zm.08 3.26V57.3l.6-.53c.3.49.19 1.39.46 1.9-.27.15-.75.1-1.06.22zm18.22 11.09c-.1.95-.16 1.97-.38 2.8-2.89.13-6.02.01-8.88.16-.2.04-.27-.03-.23-.23-.25 0-.26.25-.53.23.2-.34.44-.9.15-1.3-.8.02-.8.83-1.14 1.3-.68-.05-1.14.13-1.82.07.18-.7.75-1.02.9-1.74-.39-.55-.98.14-1.2.46-.2.48-.56.8-.76 1.29h-.99c.24-.47.49-.93.76-1.37.17-.51.62-.74.68-1.37-.16-.28-.42-.03-.68 0-.12.18-.27.34-.38.53-.23.38-.5.72-.69 1.14-.18.21-.33 0-.53.23-.38.27-.58.74-.98.99-.18-.06.04-.36.15-.38.04-.18-.1-.55.07-.61.07-.37.22-.65.38-.91.12-.74.52-1.2.69-1.9-.56.1-.68.65-.99.99-.21.44-.54.77-.68 1.29-.18-.13-.03-.58-.08-.84.12-.58.3-1.11.38-1.74.13-.22.17-.54.23-.84.17-.2.04-.6-.08-.76-.22.03-.37.14-.45.3-.2-.02-.2.51-.3.31-.05-2.59-.46-4.81-.46-7.44.02-.33-.19-.42-.23-.68 1.63.03 3.12.09 4.78.23-.09.14-.2.25-.3.38-.15.07-.23.17-.38.3-.6 1.65-.98 3.98-.6 6.15.22.58.58 1.03.98 1.44.9.49 1.63 1.15 2.5 1.67 1.7.36 3.84.37 5.55 0 .23-.12.48-.22.68-.38 1.37-1.24 2.75-2.46 2.96-4.86v-1.36c-.2-1.6-.69-2.9-1.75-3.65.34-.22 1.1.05 1.67.08h.69c.4-.03.93-.06 1.44 0 .15.19.11.54.23.76-.06 1.68-.2 3.3-.15 5.09.1.45.12.98.23 1.44-.1.97-.24 1.89-.46 2.73zm.38-11.16c-.64-.12-1.23-.29-1.9-.38.07-.33.8-.01.99-.23.38-.22.3-.92.3-1.5.03-.36.12-.65.08-1.07-.4-.95-1.78-.42-2.89-.46-.22.72-.47 1.8-.3 2.66.17.49 1.02.3 1.52.46-.14.33-.69.05-.99.07-.3-.08-.7-.05-.99-.15-2.28.08-4.28 0-6.52.15.11-1.25.06-2.46-.08-3.64h3.11c-.34.36-.91.5-1.29.83-.44.25-.86.5-1.14.91.25.14.54-.24.76-.38.36-.07.48-.38.84-.45.42-.44 1.1-.63 1.67-.91.37-.02.7.01.98.07 1.29.01 2.46.13 3.8.08.61.15 1.45.07 1.97.3.11.3.23.58.3.92.02.98-.14 1.81-.22 2.72zm-5.85-3.72c.11-.05 0-.1 0 0zm0 0c-.52.15-1.01.35-1.36.68.48-.2 1.06-.3 1.36-.68zm1.07.6c.1-.04-.01-.09 0 0zm-1.75.92c.73-.16 1.18-.6 1.75-.91-.44.01-.6.31-1 .37-.2.22-.6.26-.75.54zm-.68-.84c-.11.05 0 .1 0 0zm-.69.6c.11-.04 0-.08 0 0zm-.07.08c.06.02.07-.03.07-.07-.06-.02-.07.03-.07.07zm-.08.08c.07.01.07-.03.08-.08-.07 0-.07.03-.08.08zm-.83.6c.34-.13.61-.34.83-.6-.35.13-.61.35-.83.6zm2.27 1c.54-.05.75-.42 1.22-.54.28-.3.78-.38.99-.76-.56.03-.77.4-1.22.54-.28.3-.75.4-.99.76zm-2.27-1c-.32-.07-.02.23 0 0zm-.54.39c.03.02.12-.04.08-.08-.02-.02-.12.04-.07.08zm2.81.6c-.1.05.01.1 0 0zm-1.14 1.83c-.22-.24-.67-.24-.98-.38-.7-.04-1.23.09-1.75.23l-.9.45c-.27.17-.45.42-.77.53-.2.23-.35.51-.68.6 0 .23-.18.29-.3.39-.1.11-.1.31-.23.38-.01.12.03.29-.08.3.1 1.51.3 2.95.68 4.18.3.62.98.84 1.45 1.29.58.3 1.32.44 2.12.53.28-.05.55-.1.91-.08 1.21-.2 2.1-.73 2.81-1.44.1-.28.25-.5.46-.68-.26-.67.3-1.1.45-1.6 0-1.33-.2-2.47-.6-3.4-.26-.58-.92-.76-1.37-1.14-.06-.02-.15 0-.15-.08-.27-.14-.73-.24-1.07-.08zm-3.41 4.32c-.11-.06-.11-.24-.15-.38.25-.07.12.24.15.38zm.08.3c.04-.1.07 0 .07.08-.04.12-.08 0-.07-.07zm.45-2.04c.02-.09.08-.05.08 0-.02.08-.08.04-.08 0zm1.67-2.13c-.2.26.04.58.08.84-.3-.04-.58-.89-.08-.84zm.38 3.95c-.04-.04.06-.1.08-.08.04.04-.06.1-.08.08zm.76 2.88c.03-.1.07.01.15 0-.02.1-.15.08-.15 0zm2.2-2.58c-.23-.05-.14.21-.38.16.07-.16.12-.34.23-.46.13.02.17.13.15.3zm-1.14-3.8c.21.13.44.22.6.39.1.22.25.36.39.53.06.77.18 1.49.15 2.35-.26.1-.44.27-.68.38-.78 0-1.36-.21-1.9-.45l-.53-.76v-1.06c.17-.19.32-.4.45-.61.23-.13.51-.2.46-.6-.04-.07-.08-.13-.08-.24.16.05.25.16.38.23.32.02.41-.2.76-.15z"/>
  </symbol>
  <symbol id="icon-facebook" width="15" height="28" viewBox="56.52 50 14.96 27.72">
    <path d="M68.18 55.19c1.03.03 2 0 2.68-.3.4-.82.56-1.86.62-3-.19 0-.06-.33-.2-.39-.04-.2-.28-.2-.32-.4-.27-.16-.45-.42-.72-.6l-2.16-.5c-.85.05-1.9-.1-2.58.1-2.62-.03-4 1.13-5.26 2.4-.02.08 0 .2-.1.2-.58 1.58-.13 3.62-.21 5.58.1.43.1.96.2 1.4-1 .29-2.2.38-3.4.5-.31.32-.18 1.08-.2 1.68.08.59.27 1.06.4 1.6.22.2.6.4.83.5.07.03.08.08.1.1.51.26 1.46 0 2.28.1-.14 1.97.25 3.91 0 5.68 0 .32.29.38.2.8 0 .96-.06 1.98.21 2.68-.29.46-.5.99-.41 1.8.12.01.11.16.1.3-.07.47.64.17.52.7.16.45-.43.18-.42.5v.89c.53.28 1.47.18 2.27.2.9-.42 2.19-.48 2.79-1.2.45.24.91-.01 1.23-.2-.01-.31.28-.33.2-.7 0-.32-.16-.49-.1-.89v-2.89c-.2-2.3-.04-4.94-.3-7.18.88-.1 1.91-.07 2.57-.4.36-.44.38-1.22.52-1.89.18-.23.22-.58.2-1 .2-.2.08-.72.11-1.1-.14-.59-.17-1.3-.82-1.38-.89-.24-2.05.6-3 .3.05-1.14-.29-2.34 0-3.39.75-.18 1.45-.4 2.17-.6zm-3.82 4.78c.12.25.26.49.42.7.08.02.2 0 .2.1 1.2.06 2.2-.07 3.1-.3 0 1-.27 1.73-.52 2.5-.66.04-1.47.3-1.96.2-.27.16-.37.5-.62.69-.05.44.14.5 0 .8-.2.13-.05.6-.2.8v1.49c.08.28-.15.26-.1.5v3.48c-.1.28.14.26.1.5v2.99c.06.27-.14.8.1.9-.07.36-.41-.02-.82.1-.53.12-.93.36-1.55.4.11-.36.32-.63.3-1.1.06-.38-.36-.31-.5-.5.19-.63.55-1.1.71-1.78.2-.52.72-1.3.31-1.8-.52-.1-.52.3-.82.4-.02.08 0 .2-.1.2-.03.08 0 .2-.1.2 0 .12-.16.06 0 0 .01-.08 0-.2.1-.2.02-.08 0-.2.1-.2v-.3a5.7 5.7 0 00.83-2c.19-.27.28-.65.4-.99.16-.26.35-.87.11-1.2-.52.04-.8.3-.93.7-.32-.19.16-.43.1-.7.14-.22.17-.56.31-.8.2-.4.57-1.3 0-1.59-.43-.02-.6.21-.72.5-.21.2-.43.38-.52.7-.37-.07-.14-.73-.2-1.1-.07-.52.12-.9 0-1.2-.56-.8-2.03-.1-3.2-.3-.1-.3-.22-.98-.1-1.19 1.04-.08 2.48.2 3.2-.2.02-.07 0-.2.1-.2.1-.72-.27-1-.52-1.4.24-.8.04-2.01.1-2.98.24-.14.34-.41.52-.6.11-.95.68-1.47.72-2.49-.27 0-.6-.05-.61.2-.3-.11-.39.48-.52.2-.11-.54.25-.63.31-1 .6-.41 1.21-.82 1.86-1.2 1.74-.24 4.64-.44 6.08.2.05.62-.29.86-.2 1.5h-1.55c-1.1.24-1.99.67-3 1-.23.07-.27.33-.5.4-.04.4-.23.64-.32 1-.08 1.42.13 2.58.1 3.97z"/>
  </symbol>
  <symbol id="icon-twitter" width="23" height="20" viewBox="52.25 53.77 23.49 20.17">
    <path d="M75.7 57.85c-.22-.36-.9-.27-1.4-.37h-1.11c.14-.35.34-.64.52-.96.05-.44.25-.73.22-1.26.13-.17.18-.42.3-.6.1-.14.24-.47.07-.66-.05-.22-.3-.25-.6-.22a.51.51 0 00-.21.15c-.45.43-.78 1.01-1.27 1.4 0 .01-.06 0-.07 0-.09.01-.03.05-.07.08l-.37.22c-.29.18-.55.45-.9.52a6.07 6.07 0 00-1.85-.37c-1.15.1-2.3.22-3.03.74-.92.35-1.48 1.04-2.15 1.63-.05.32-.35.4-.37.74 0 .05-.02.1-.08.08.05.24-.05.34-.07.52 0 .13.2.43 0 .52-.82-.12-1.49-.63-2.15-.97-.72-.36-1.47-.6-2.07-1.1a6.03 6.03 0 01-1.78-1.34c-.21-.32-.54-.5-.67-.9-.38-.16-.17-.9-.74-.88-.31-.05-.34.2-.44.37-.07.22-.36.23-.37.52 0 .04-.02.08-.08.07-.17 1.1-.53 2-.52 3.26.13.42.35.74.6 1.04-.42.05-.72.22-.9.52-.05 1.07.38 1.65.75 2.3.13.38.35.68.59.96.02.23.2.29.3.44.02.1.12.13.15.23-.04.1.28.18.07.22-.41.13-1.02.07-1.26.37-.11.28-.11.83 0 1.11.03.24.28.26.3.52.5.42 1.08.75 1.63 1.11.57.17 1.2.27 1.85.37-.1.34-.34.55-.6.74-.78.38-1.84.48-2.74.74-.55.04-.95.23-1.55.22-.34.13-.86.08-1.12.23-.12.07-.1.1-.22.22-.13.41.11.74.45.89 0 .25.22.27.37.37.09.18.25.29.44.37.55.47 1.27.76 1.93 1.11.83.18 1.65.38 2.52.52.9.12 1.9.12 2.82.22h.96c.51.13 1.23.06 1.85.08.1-.1.32-.08.52-.08.52-.27 1.2-.38 1.63-.74.58-.24 1-.64 1.56-.89.87-.76 1.94-1.32 2.52-2.37.2-.19.35-.44.44-.74.27-.15.39-.45.6-.66.4-.41.7-.93 1.03-1.4.32-.5.58-1.06.9-1.56-.02-.4.3-.48.29-.89.2-.23.18-.66.37-.88-.03-.26.03-.42.07-.6.05-1.28-.04-2.42-.3-3.4.6-.16 1.19-.3 1.64-.6.52-.2 1-.6.8-1.28zm-3.4 4.08c-.15.86-.62 1.41-1.04 2 .06.38-.1.54-.07.9a4.3 4.3 0 00-.37 1.03c-.2.27-.34.6-.52.89-.37.55-.78 1.05-1.19 1.56-.38.56-.91.96-1.33 1.48-.42.49-.94.88-1.41 1.33-.47.17-.89.4-1.26.67-.23.09-.46.18-.67.3-.17.14-.5.14-.66.28a24 24 0 01-3.56.15c-1.03-.1-2.11-.16-3.04-.37-.92-.19-1.51-.71-2.3-1.04.16-.24.64-.15.97-.22.03-.16.4 0 .44-.15.26.06.29-.1.52-.07.56-.2 1.23-.3 1.7-.6.29-.13.41-.42.67-.58.04-.2.1-.34.23-.45.04-.27.2-.44.14-.81.11-.21.3-.35.3-.67-.07-.15-.13-.32-.3-.37-.02-.2-.37-.07-.44-.22-.26.03-.42-.03-.6-.08-.15-.04-.48.1-.51-.07-.84-.02-1.3-.43-1.86-.74.44-.26 1.04-.35 1.34-.74.51-.08 1.06-.13 1.1-.67 0-.72-.76-.66-1.32-.81-.78-.66-1.2-1.68-1.78-2.52.24-.16.56-.23.74-.45.45.06.54-.25.67-.52.01-.49-.34-.6-.6-.81a3.49 3.49 0 01-.66-.74c0-.82-.03-1.65.07-2.37.06-.02.07.02.07.07.23.44.56.77.82 1.19.53.35.92.85 1.55 1.1.46.42 1.11.63 1.56 1.05.6.26 1.16.57 1.7.88.67.2 1.06.68 2 .6l.6-.3c.26-.46-.06-1.08.15-1.63.25-.66.8-1.03 1.26-1.48.29-.16.55-.34.81-.52.35-.1.68-.22.97-.37.37-.02.7-.08 1.03-.15h1.26c.25.05.48.12.74.15.21.14.38.31.67.37.79.7 1.27 1.7 1.4 3.04-.12.48.06.87 0 1.48zm.3-5.63c-.14.34-.24.7-.6.81-.02-.1-.12-.12-.15-.22 0-.2.21-.18.3-.3.16-.08.24-.24.44-.3 0-.08.11-.04 0 0zm-5.49 3.04c.16.13.28.3.52.37.1.22.31.33.6.37.04-.15.34-.05.36-.22.18-.03.17-.23.3-.3-.02-.55-.13-1-.37-1.33-.76-.43-1.68.04-1.41 1.1z"/>
  </symbol>
  <symbol id="htmlacademy-logo" x="0" y="0" width="27" height="34" viewBox="0 0 27 34">
    <path d="M13.62,0.017L13.472,0L0,1.412v24.661l13.473,8.017l13.43-7.99l0.042-0.025V1.412L13.62,0.017z M25.019,12.127L13.495,5.334 L13.494,5.23l-0.087,0.05l-0.088-0.056v0.109L1.925,12.118V3.147l11.548-1.212l11.547,1.212V12.127z M13.405,6.787L24.923,13.5 l-4.479,2.64l-7.093-4.221l-0.014,1.415l5.904,3.513l-0.86,0.507l-5.03-2.992l-0.014,1.415l3.827,2.275l-0.782,0.523l-3.031-1.787 l-0.014,1.413l1.853,1.091l-1.8,1.081L2.034,13.622L13.405,6.787z M1.925,15.127l11.411,6.791l0.016,1.044L5.41,18.234L5.395,19.65 l7.979,4.795l0.018,1.076l-7.973-4.74l-0.013,1.414l8.021,4.822l0.046,0.025l8.143-4.872l-0.011-5.177l3.415-2.036v10.021 L13.472,31.85L1.925,24.979V15.127z"/>
  </symbol>
  <symbol id="footer-logo" width="102" height="34" viewBox="0 0 102 34">
    <path d="M19.135 21.495c-.083-2.683-.51-5.347-.475-8.035.028-2.174.389-4.41-.36-6.495.047-.237.096-.473.14-.711.193-1.045-3.271-.492-3.813.464-.343.28-.519.615-.375.957.037.086.069.174.102.261-.656 3.204-1.57 6.306-2.621 9.412-.402 1.188-.888 2.349-1.298 3.533-.582-1.104-1.169-2.194-1.643-3.377-1.374-3.433-2.612-6.902-4.287-10.206.19-1.528-3.204-1.368-3.873.032-.809 1.694-.705 3.403-.438 5.214.3 2.042.353 4.05.377 6.111.047 3.976.358 7.943.417 11.919-.354.395-.461.881-.091 1.375.162.216.361.382.571.549.904.724 3.5.107 3.496-1.271-.014-4.123-.312-8.238-.42-12.358a98.054 98.054 0 01-.024-1.21l.171.434c.64 1.604 1.31 3.163 2.185 4.654.868 1.478 1.303 3.064 1.803 4.677-.189.217-.303.462-.233.708-.039.18.07.292.251.36.639.548 1.841.274 2.509-.007a6.07 6.07 0 00.826-.424c.345-.212.883-.679.729-1.159l-.087-.279c.47-1.27.709-2.589.965-3.93.272-1.428.782-2.78 1.295-4.133.052.619.106 1.238.156 1.855.204 2.554.033 5.072.007 7.626-.008.847.054 1.633.219 2.461.068.343.367 1.808.281 1.887-.611.564-.433 1.257.385 1.437.915.201 2.081-.105 2.77-.742 1.198-1.106.632-2.845.361-4.241-.452-2.342.095-4.964.022-7.348zM27.499 22.17c-.074-1.988-.765-3.862-.774-5.872-.011-2.305.181-4.593-.155-6.886-.106-.725-4.056.1-3.917 1.05.309 2.11.197 4.229.159 6.354-.037 2.044.468 3.898.73 5.904.269 2.054-.084 4.157.149 6.213.109.962.75 2.743.089 3.58-.42.532 1.469.342 1.553.326.769-.142 1.793-.392 2.304-1.038.653-.828.196-2.426.053-3.357-.316-2.059-.114-4.195-.191-6.274zM43.828 18.851c-2.062-2.784-5.889-.78-8.561-1.54-1.377-.392-1.395-2.271-1.392-3.396.004-1.426-.114-2.732-.273-4.146-.119-1.052-.024-2.121.746-2.904.142-.144.859-.336.81-.339a8.132 8.132 0 011.067-.093c1.549-.066 4.613.232 4.019 2.483-.266 1.01 3.596.431 3.877-.637 1.213-4.598-7.284-3.714-9.686-3.078-2.21.588-4.648 1.846-4.775 4.399-.061 1.219.273 2.379.325 3.587.061 1.39-.198 2.776.289 4.118 1.082 2.982 5.52 1.576 7.778 1.745 3.845.287 2.697 5.469 2.748 7.883.027 1.288 1.181 3.429.211 4.507-.595.662-1.982.699-2.792.768-.813.068-2.201.312-2.742-.461-.993-1.418.091-3.799-.121-5.425-.121-.924-4.066-.095-3.917 1.05.342 2.627-1.399 6.145 2.402 6.596 2.441.289 5.191-.161 7.5-.928 1.196-.396 2.307-.942 3.243-1.793 1.035-.941.694-2.348.417-3.547-.677-2.918.731-6.279-1.173-8.849zM61.155 18.662c-.122-3.777-.69-7.513-.706-11.297-.008-1.971-3.963-1.305-3.957.343.015 3.608.497 7.167.682 10.764l.013.221c-1.949-.018-3.899.177-5.853.246.201-4.633-.611-9.227-.435-13.857.022-.582-3.874-.09-3.917 1.049-.171 4.475.587 8.915.453 13.392-.064 2.136-.245 4.264-.259 6.402-.007 1.095.171 2.183.329 3.263.146.999.484 2.331.182 3.318-.237.772 3.561.29 3.862-.694.544-1.778-.222-4.039-.405-5.839-.175-1.725-.039-3.499.083-5.248 2.03-.13 4.059-.297 6.08-.012.09 1.378.196 2.754.322 4.134a45.83 45.83 0 01.196 3.475c.015 1.019.142 2.496-.221 3.461-.773 2.057 3.15 1.889 3.723.364.703-1.87.502-4.199.383-6.164-.148-2.443-.477-4.874-.555-7.321zM78.087 23.136c-.939-2.758-2.373-5.177-3.616-7.797 1.001-1.949 2.018-3.898 2.932-5.888.831-1.808 1.446-3.819 3.08-5.092.574-.447.55-.896-.255-.951-.875-.061-2.064.192-2.77.742-1.485 1.158-2.427 2.563-3.201 4.268a160.304 160.304 0 01-2.914 6.075l-.224.443c-.49.315-.785.762-.639 1.266-.792 1.563-1.6 3.117-2.499 4.61-.299-5.534-.955-11.061-1.15-16.6-.045-1.27-3.971-.479-3.917 1.049.243 6.868 1.219 13.719 1.286 20.587l-.047.051c-.301.308-.19.494.051.602a60.756 60.756 0 01-.209 5.254c-.472.745.463 1.139 1.084 1.139h.096c.739 0 2.626-.35 2.718-1.364.191-2.1.251-4.196.232-6.291 1.59-1.715 2.89-3.63 4.055-5.635.759 1.48 1.482 2.972 1.989 4.582.861 2.741 2.299 5.261 3.131 8.014.544 1.806 4.457.738 3.917-1.049-.829-2.753-2.204-5.297-3.13-8.015zM101.59 18.501c-.21-.832-1.372-.849-2.271-.77-.012-.335-.02-.671-.036-1.006-.125-2.661-.165-5.379-.392-8.032-.209-2.458-1.585-3.337-3.972-3.247-2.416.092-5.229.527-7.482 1.403-2.607 1.014-4.058 2.935-4.559 5.681-.549 3.014.24 6.219.373 9.246.154 3.503.066 7.014.062 10.519 0 .573 3.916.031 3.917-1.049.003-2.776.042-5.551 0-8.327a52.196 52.196 0 00-.102-2.444c1.369-.593 3.687.012 5.05.141 1.107.104 2.169-.166 3.244-.292.021 2.312.107 4.635.202 6.944.049 1.184.477 3.53-.354 4.511-.437.516 1.48.343 1.555.33.793-.146 1.761-.401 2.303-1.041.949-1.12.456-3.79.401-5.126-.078-1.91-.102-3.824-.141-5.737 1.154-.147 2.417-.854 2.202-1.704zm-14.618-.15c-.103-1.245-.217-2.49-.303-3.743-.16-2.331.117-5.583 2.29-6.999.58-.379 1.675-.315 2.354-.438.97-.176 1.956-.389 2.829.19 1.21.802.912 3.657.911 4.869-.003 2.005.207 4.001.31 6.003-.552.055-1.111.089-1.683.076-2.286-.053-4.544-.413-6.708.042zM24.108 6.7a3.157 3.157 0 001.477-.524l.256-.216c.52-.335.972-.827.728-1.361-.504-1.105-.423-2.231-.416-3.414.006-.958-.963-1.246-1.781-1.174-.723.063-2.168.581-2.175 1.52-.006.993-.071 2.016.109 2.992-.047.113-.074.239-.104.355-.055.212.016.42.142.59l.002.134.015.335a.901.901 0 00.429.53c.388.233.878.275 1.318.233z"/>
  </symbol>
</svg>
